<svg width="101" height="101" viewBox="0 0 101 101" fill="none" xmlns="http://www.w3.org/2000/svg">
<path fill-rule="evenodd" clip-rule="evenodd" d="M98.5542 8.51841C100.497 6.55638 100.482 3.39059 98.52 1.44743C96.558 -0.495738 93.3922 -0.480444 91.449 1.48159L50.0008 43.3322L8.55257 1.48159C6.60941 -0.48044 3.44362 -0.495734 1.48159 1.44743C-0.480444 3.3906 -0.495738 6.55639 1.44743 8.51842L42.9637 50.4377L1.44747 92.357C-0.495693 94.319 -0.480404 97.4848 1.48163 99.428C3.44366 101.371 6.60945 101.356 8.55262 99.3938L50.0008 57.5432L91.449 99.3938C93.3922 101.356 96.558 101.371 98.52 99.428C100.482 97.4848 100.497 94.319 98.5542 92.357L57.038 50.4377L98.5542 8.51841Z" fill="#F33053"/>
</svg>
