<svg width="41" height="40" viewBox="0 0 41 40" fill="none" xmlns="http://www.w3.org/2000/svg">
<path fill-rule="evenodd" clip-rule="evenodd" d="M30.1518 20.2273C30.1518 19.5183 30.0874 18.8364 29.9677 18.1819H20.4343V22.0501H25.882C25.6473 23.3001 24.9342 24.3592 23.8621 25.0683V27.5774H27.1335C29.0475 25.8364 30.1518 23.2728 30.1518 20.2273Z" fill="#4285F4"/>
<path fill-rule="evenodd" clip-rule="evenodd" d="M20.4339 29.9999C23.1669 29.9999 25.4582 29.1045 27.133 27.5772L23.8617 25.0681C22.9553 25.6681 21.7958 26.0226 20.4339 26.0226C17.7975 26.0226 15.566 24.2635 14.77 21.8999H11.3882V24.4908C13.0538 27.759 16.477 29.9999 20.4339 29.9999Z" fill="#34A853"/>
<path fill-rule="evenodd" clip-rule="evenodd" d="M14.7704 21.9C14.568 21.3 14.453 20.659 14.453 20C14.453 19.3409 14.568 18.6999 14.7704 18.0999V15.509H11.3887C10.7031 16.859 10.312 18.3863 10.312 20C10.312 21.6136 10.7031 23.1409 11.3887 24.4909L14.7704 21.9Z" fill="#FBBC05"/>
<path fill-rule="evenodd" clip-rule="evenodd" d="M20.4339 13.9773C21.92 13.9773 23.2543 14.4818 24.3034 15.4727L27.2066 12.6046C25.4536 10.9909 23.1623 10 20.4339 10C16.477 10 13.0538 12.2409 11.3882 15.5091L14.77 18.1C15.566 15.7364 17.7975 13.9773 20.4339 13.9773Z" fill="#EA4335"/>
</svg>
