<svg width="40" height="40" viewBox="0 0 40 40" fill="none" xmlns="http://www.w3.org/2000/svg">
<path d="M20 12C21.6272 12 23.1323 12.3048 24.5151 12.9143C25.8979 13.5238 26.9911 14.3526 27.7946 15.4007C28.5982 16.4488 29 17.592 29 18.8304C29 20.0688 28.5982 21.2137 27.7946 22.265C26.9911 23.3163 25.8996 24.1467 24.5201 24.7562C23.1406 25.3658 21.6339 25.6705 20 25.6705C19.4844 25.6705 18.952 25.635 18.4029 25.5641C16.019 27.1572 14.75 27.9635 14.596 27.9828C14.5223 28.0086 14.452 28.0054 14.385 27.9731C14.3583 27.9538 14.3382 27.928 14.3248 27.8957C14.3114 27.8635 14.3047 27.8345 14.3047 27.8087V27.77C14.3449 27.5184 14.6496 26.4703 15.2188 24.6256C13.9263 24.0065 12.9001 23.1857 12.1401 22.1634C11.38 21.1411 11 20.0301 11 18.8304C11 17.592 11.4018 16.4488 12.2054 15.4007C13.0089 14.3526 14.1021 13.5238 15.4849 12.9143C16.8677 12.3048 18.3728 12 20 12Z" fill="#3C1E1E"/>
</svg>
