<svg width="24" height="24" viewBox="0 0 24 24" fill="none" xmlns="http://www.w3.org/2000/svg">
<path d="M5 11.2C4.55817 11.2 4.2 11.5582 4.2 12C4.2 12.4418 4.55817 12.8 5 12.8V11.2ZM19 12.8C19.4418 12.8 19.8 12.4418 19.8 12C19.8 11.5582 19.4418 11.2 19 11.2V12.8ZM5 12.8H19V11.2H5V12.8Z" fill="#FEE500"/>
<path d="M12.8 5C12.8 4.55817 12.4418 4.2 12 4.2C11.5582 4.2 11.2 4.55817 11.2 5L12.8 5ZM11.2 19C11.2 19.4418 11.5582 19.8 12 19.8C12.4418 19.8 12.8 19.4418 12.8 19L11.2 19ZM11.2 5L11.2 19L12.8 19L12.8 5L11.2 5Z" fill="#FEE500"/>
</svg>
