<svg width="24" height="24" viewBox="0 0 24 24" fill="none" xmlns="http://www.w3.org/2000/svg">
<path d="M17.8449 8.85764C18.0425 9.18997 18.472 9.29926 18.8043 9.10174C19.1367 8.90422 19.246 8.47468 19.0484 8.14235L17.8449 8.85764ZM14.5224 5.37149L14.3032 6.03628L14.5224 5.37149ZM9.44842 5.53284L9.70972 6.18225V6.18225L9.44842 5.53284ZM5.74315 8.90398L5.11897 8.58711H5.11897L5.74315 8.90398ZM5.24555 13.8117L4.57075 13.9979L5.24555 13.8117ZM8.20259 17.8203L8.5837 17.2331L8.20259 17.8203ZM13.1466 18.9401L13.2354 19.6344H13.2354L13.1466 18.9401ZM17.6239 16.6154L18.1434 17.0845L17.6239 16.6154ZM19.6578 14.5727C19.79 14.2094 19.6027 13.8078 19.2394 13.6755C18.8761 13.5433 18.4744 13.7306 18.3422 14.0939L19.6578 14.5727ZM19.0484 8.14235C18.0863 6.52347 16.5541 5.30438 14.7416 4.7067L14.3032 6.03628C15.8016 6.53037 17.0589 7.53506 17.8449 8.85764L19.0484 8.14235ZM14.7416 4.7067C12.9294 4.10912 10.9558 4.17177 9.18713 4.88344L9.70972 6.18225C11.1714 5.59413 12.8044 5.54208 14.3032 6.03628L14.7416 4.7067ZM9.18713 4.88344C7.41806 5.59526 5.97053 6.9097 5.11897 8.58711L6.36732 9.22085C7.06223 7.85201 8.24845 6.77022 9.70972 6.18225L9.18713 4.88344ZM5.11897 8.58711C4.26713 10.2651 4.0717 12.1886 4.57075 13.9979L5.92035 13.6256C5.51444 12.154 5.6727 10.5891 6.36732 9.22085L5.11897 8.58711ZM4.57075 13.9979C5.06969 15.8067 6.22712 17.3726 7.82149 18.4074L8.5837 17.2331C7.27083 16.381 6.32637 15.0976 5.92035 13.6256L4.57075 13.9979ZM7.82149 18.4074C9.41538 19.442 11.3393 19.8769 13.2354 19.6344L13.0578 18.2458C11.4874 18.4466 9.89704 18.0856 8.5837 17.2331L7.82149 18.4074ZM13.2354 19.6344C15.1317 19.3919 16.8767 18.4876 18.1434 17.0845L17.1043 16.1463C16.0656 17.2969 14.6281 18.0449 13.0578 18.2458L13.2354 19.6344ZM18.1434 17.0845C18.8125 16.3433 19.324 15.4897 19.6578 14.5727L18.3422 14.0939C18.0703 14.8411 17.6527 15.5389 17.1043 16.1463L18.1434 17.0845Z" fill="#B8BED0"/>
<path d="M16 8.3C15.6134 8.3 15.3 8.6134 15.3 9C15.3 9.3866 15.6134 9.7 16 9.7V8.3ZM19 9V9.7C19.3866 9.7 19.7 9.3866 19.7 9H19ZM19.7 6C19.7 5.6134 19.3866 5.3 19 5.3C18.6134 5.3 18.3 5.6134 18.3 6H19.7ZM16 9.7H19V8.3H16V9.7ZM19.7 9V6H18.3V9H19.7Z" fill="#B8BED0"/>
</svg>
