<svg width="132" height="126" viewBox="0 0 132 126" fill="none" xmlns="http://www.w3.org/2000/svg">
<path d="M84.8788 78.3243L116.471 49.4046L128.863 121.883C129.235 124.056 126.814 126.272 124.673 125.718L53.2841 107.246L84.8767 78.3263L84.8788 78.3243Z" fill="#FFCE31"/>
<path d="M95.7407 90.1129C113.877 73.5111 121.894 52.7953 113.647 43.843C105.401 34.8906 84.0132 41.0917 65.877 57.6935C47.7408 74.2953 39.7237 95.0111 47.9704 103.963C56.217 112.916 77.6045 106.715 95.7407 90.1129Z" fill="#FFDC4A"/>
<path d="M93.636 87.8289C110.76 72.1533 118.79 53.0919 111.57 45.2542C104.35 37.4165 84.615 43.7704 67.4906 59.4461C50.3662 75.1217 42.3369 94.1831 49.5568 102.021C56.7766 109.859 76.5116 103.505 93.636 87.8289Z" fill="#FFC33E"/>
<path d="M71.8868 77.2459L33.8166 55.3352C31.9904 54.2842 29.6553 54.9079 28.601 56.7283C27.5466 58.5487 28.1723 60.8765 29.9985 61.9275L68.0687 83.8382C69.8949 84.8893 72.23 84.2655 73.2843 82.4451C74.3387 80.6247 73.713 78.2969 71.8868 77.2459Z" fill="#0BD58C"/>
<path d="M62.0703 45.0415L44.4516 27.4782C42.9605 25.9918 40.543 25.9918 39.052 27.4782C37.5609 28.9645 37.5609 31.3744 39.052 32.8608L56.6707 50.4241C58.1618 51.9105 60.5793 51.9105 62.0703 50.4241C63.5614 48.9378 63.5614 46.5279 62.0703 45.0415Z" fill="#0BD58C"/>
<path d="M15.1265 42.5048C18.318 42.5048 20.9052 39.9257 20.9052 36.7442C20.9052 33.5627 18.318 30.9836 15.1265 30.9836C11.9349 30.9836 9.34772 33.5627 9.34772 36.7442C9.34772 39.9257 11.9349 42.5048 15.1265 42.5048Z" fill="#FF4F4F"/>
<path d="M32.7832 102.406C35.9747 102.406 38.562 99.8273 38.562 96.6458C38.562 93.4643 35.9747 90.8853 32.7832 90.8853C29.5917 90.8853 27.0045 93.4643 27.0045 96.6458C27.0045 99.8273 29.5917 102.406 32.7832 102.406Z" fill="#FF4F4F"/>
<path d="M81.6908 41.6613C81.6908 41.6613 78.56 47.9074 90.8914 49.4154L86.6812 55.7129C79.9985 54.3057 77.2164 48.4525 77.592 46.6729C77.9677 44.8933 78.4362 44.7802 81.6929 41.6613H81.6908Z" fill="#786CFF"/>
<path d="M80.9251 30.1401L89.4034 35.0489C89.4034 35.0489 79.8354 41.0605 77.8748 48.4978C76.7252 45.4735 76.1019 36.2813 80.9251 30.1381V30.1401Z" fill="#6733FB"/>
<path d="M88.8007 5.24005C88.8007 5.24005 95.7228 4.16612 93.4175 16.3333L100.715 14.2471C101.4 7.47227 96.6516 3.05104 94.8374 2.86793C93.0233 2.68483 92.7736 3.09424 88.8028 5.24005H88.8007Z" fill="#786CFF"/>
<path d="M78.0233 1.01221L80.1388 10.5562C80.1388 10.5562 88.7925 3.29586 96.4968 3.69499C93.9562 1.68496 85.3603 -1.70143 78.0233 1.01221Z" fill="#6733FB"/>
<path d="M13.0827 80.617C13.0827 80.617 6.38551 78.5679 6.92417 90.9387L0 87.8362C0.293065 81.0346 5.62602 77.3335 7.44839 77.4096C9.27076 77.4857 9.45857 77.928 13.0827 80.617Z" fill="#786CFF"/>
<path d="M24.3554 77.9672L20.8922 87.1121C20.8922 87.1121 13.3695 78.6955 5.68588 77.9918C8.48857 76.3645 17.4828 74.2372 24.3533 77.9692L24.3554 77.9672Z" fill="#6733FB"/>
<path d="M93.3081 72.5604C96.4996 72.5604 99.0869 69.9813 99.0869 66.7999C99.0869 63.6184 96.4996 61.0393 93.3081 61.0393C90.1166 61.0393 87.5294 63.6184 87.5294 66.7999C87.5294 69.9813 90.1166 72.5604 93.3081 72.5604Z" fill="#FF4F4F"/>
</svg>
